<?xml version="1.0" encoding="utf-8"?>
<!-- Generator: Adobe Illustrator 21.0.0, SVG Export Plug-In . SVG Version: 6.00 Build 0)  -->
<svg version="1.1" id="Layer_1" xmlns="http://www.w3.org/2000/svg" xmlns:xlink="http://www.w3.org/1999/xlink" x="0px" y="0px"
	 viewBox="0 0 662 273" style="enable-background:new 0 0 662 273;" xml:space="preserve">
<style type="text/css">
	.st0{clip-path:url(#SVGID_2_);}
	.st1{clip-path:url(#SVGID_4_);fill:#FFFFFF;}
</style>
<g id="playBtn1">
	<g>
		<defs>
			<rect id="SVGID_1_" x="10" y="9" width="647.3" height="246.1"/>
		</defs>
		<clipPath id="SVGID_2_">
			<use xlink:href="#SVGID_1_"  style="overflow:visible;"/>
		</clipPath>
		<g class="st0">
			<defs>
				<rect id="SVGID_3_" x="10" y="9" width="647.3" height="246.1"/>
			</defs>
			<clipPath id="SVGID_4_">
				<use xlink:href="#SVGID_3_"  style="overflow:visible;"/>
			</clipPath>
			<path class="st1" d="M333.6,223.3c-48.7,0-88.4-39.6-88.4-88.4c0-48.7,39.6-88.4,88.4-88.4c48.7,0,88.4,39.6,88.4,88.4
				C422,183.7,382.4,223.3,333.6,223.3 M333.6,53.1c-45.2,0-81.9,36.7-81.9,81.9c0,45.2,36.7,81.9,81.9,81.9
				c45.2,0,81.9-36.7,81.9-81.9C415.5,89.8,378.8,53.1,333.6,53.1"/>
			<path class="st1" d="M309,135v-29.7c0-5.6,6-9.1,10.9-6.3l25.7,14.8l25.7,14.8c4.8,2.8,4.8,9.8,0,12.6l-25.7,14.8l-25.7,14.8
				c-4.8,2.8-10.9-0.7-10.9-6.3V135z"/>
		</g>
	</g>
</g>
</svg>
